# xmcd
#
# Track frame offsets:
#	150
#	14213
#	27617
#	40738
#	52843
#	67204
#	81678
#	95731
#	110033
#	123839
#	138077
#	153104
#	168767
#	180080
#	193308
#	208903
#	222797
#	234104
#	245188
#	255824
#	269349
#	282229
#	294218
#	304766
#	318154
#	331856
#	344703
#
# Disc length: 4778 seconds
#
# Revision: 0
# Processed by: cddbd v1.5.2PL0 Copyright (c) Steve Scherf et al.
# Submitted via: audiograbber 1.83.01
#
DISCID=8e12a81b
DTITLE=Toni Arden - This Is Toni Arden
DYEAR=1900
DGENRE=
TTITLE0=I Can Dream Can't I
TTITLE1=Rain
TTITLE2=Don't Ever Leave Me
TTITLE3=It's Love
TTITLE4=And You'll Be Home
TTITLE5=My Tears Won't Dry
TTITLE6=My Man
TTITLE7=Too Late Now
TTITLE8=Too Young
TTITLE9=Dark Is The Night
TTITLE10=Wonder Why
TTITLE11=Invitation To A Broken Heart
TTITLE12=If You Turn Me Down
TTITLE13=Once
TTITLE14=When The World Was Young
TTITLE15=There's Always My Heart
TTITLE16=Kiss Of Fire
TTITLE17=I'm Yours
TTITLE18=Blow Out The Candle
TTITLE19=Where Did The Night Go
TTITLE20=Tell Your Tale Nightingale
TTITLE21=Kiss
TTITLE22=F'r Instance
TTITLE23=I'm Praying To Saint Christopher
TTITLE24=Three Coins In The Fountain
TTITLE25=Where The Rolling Mountains Meet The Rolling Sea
TTITLE26=In Paris And In Love
EXTD=
EXTT0=
EXTT1=
EXTT2=
EXTT3=
EXTT4=
EXTT5=
EXTT6=
EXTT7=
EXTT8=
EXTT9=
EXTT10=
EXTT11=
EXTT12=
EXTT13=
EXTT14=
EXTT15=
EXTT16=
EXTT17=
EXTT18=
EXTT19=
EXTT20=
EXTT21=
EXTT22=
EXTT23=
EXTT24=
EXTT25=
EXTT26=
PLAYORDER=
